<svg width="985" height="1380" viewBox="0 0 985 1380" fill="none" xmlns="http://www.w3.org/2000/svg">
<g clip-path="url(#clip0_105_48)">
<g clip-path="url(#clip1_105_48)">
<mask id="mask0_105_48" style="mask-type:luminance" maskUnits="userSpaceOnUse" x="-496" y="-298" width="1977" height="1977">
<path d="M-496 -298H1481V1679H-496V-298Z" fill="white"/>
</mask>
<g mask="url(#mask0_105_48)">
<path d="M111.712 1206.74C147.755 1206.74 171.884 1186.18 171.884 1155.21C171.884 1136.66 161.975 1118.38 146.489 1111.29C157.411 1103.66 162.993 1089.69 162.993 1077.52C162.993 1047.82 139.389 1029.01 102.31 1029.01H7.61426V1206.74H111.712ZM35.7993 1123.73H112.473C128.721 1123.73 140.658 1137.68 140.658 1152.15C140.658 1171.21 127.959 1181.86 103.075 1181.86H35.7993V1123.73ZM35.7993 1101.38V1053.14H96.4795C121.096 1053.14 132.78 1062.29 132.78 1079.8C132.78 1092.23 124.411 1101.38 112.984 1101.38H35.7993Z" fill="black"/>
<path d="M172.647 1206.74H205.648L277.484 1077.78L349.594 1206.74H382.594L277.484 1018.87L172.647 1206.74Z" fill="black"/>
<path d="M428.292 1181.86V1029.02H399.604V1206.74H555.229V1181.86H428.292Z" fill="black"/>
<path d="M571.986 1206.74H604.986L676.845 1077.78L748.955 1206.74H781.955L676.845 1018.87L571.986 1206.74Z" fill="black"/>
<path d="M888.588 1206.74C938.09 1206.74 977.177 1166.62 977.177 1116.86C977.177 1066.85 937.585 1029.01 887.322 1029.01H814.958V1206.74H888.588ZM843.648 1056.69H883.5C916.751 1056.69 947.729 1078.03 947.729 1116.1C947.729 1152.65 919.814 1178.81 884.002 1178.81H843.648V1056.69Z" fill="black"/>
<path d="M79.914 1317.16C73.1962 1322.85 63.2647 1325.69 50.1221 1325.69H15.2834V1259.67H50.1221C63.2647 1259.67 73.1962 1262.56 79.914 1268.38C86.7824 1274.06 90.2054 1282.19 90.2054 1292.76C90.2054 1303.22 86.7824 1311.35 79.914 1317.16ZM76.4519 1256.52C69.1176 1253.27 60.3493 1251.65 50.1221 1251.65H6.40918V1373.62H15.2834V1333.71H50.1221C60.3493 1333.71 69.1176 1332.08 76.4519 1328.82C83.7583 1325.59 89.402 1320.88 93.3328 1314.73C97.2803 1308.56 99.2666 1301.25 99.2666 1292.76C99.2666 1284.05 97.2803 1276.68 93.3328 1270.64C89.402 1264.49 83.7583 1259.78 76.4519 1256.52Z" fill="black"/>
<path d="M138.123 1315.6H203.114V1307.76H138.123V1259.67H210.763V1251.65H129.227V1373.62H213.38V1365.59H138.123V1315.6Z" fill="black"/>
<path d="M254.665 1325.87V1259.67H289.523C302.646 1259.67 312.578 1262.56 319.315 1268.38C326.164 1274.06 329.582 1282.19 329.582 1292.76C329.582 1303.21 326.164 1311.35 319.315 1317.16C312.578 1322.97 302.646 1325.87 289.523 1325.87H254.665ZM315.828 1328.82C323.14 1325.46 328.781 1320.75 332.728 1314.73C336.684 1308.56 338.648 1301.25 338.648 1292.76C338.648 1284.05 336.684 1276.68 332.728 1270.64C328.781 1264.49 323.14 1259.78 315.828 1256.52C308.499 1253.27 299.731 1251.64 289.523 1251.64H245.788V1373.62H254.665V1333.7H289.523C293.691 1333.7 297.555 1333.36 301.24 1332.82L330.452 1373.62H340.573L310.014 1330.97C312.042 1330.36 313.981 1329.64 315.828 1328.82Z" fill="black"/>
<path d="M371.229 1373.62H380.12V1319.78H445.091V1311.75H380.12V1259.67H452.76V1251.65H371.229V1373.62Z" fill="black"/>
<path d="M568.963 1321.52C568.963 1336.72 565.479 1348.01 558.529 1355.32C551.558 1362.63 541.729 1366.28 529.072 1366.28C516.292 1366.28 506.428 1362.63 499.456 1355.32C492.484 1348.01 488.994 1336.72 488.994 1321.52V1251.65H480.12V1321.87C480.12 1339.28 484.472 1352.4 493.182 1361.24C501.905 1370.07 513.798 1374.48 528.905 1374.48C544.12 1374.48 556.074 1370.07 564.804 1361.24C573.508 1352.4 577.86 1339.28 577.86 1321.87V1251.65H568.963V1321.52Z" fill="black"/>
<path d="M735.878 1251.65L681.424 1345.91L626.814 1251.65H619.335V1373.62H628.039V1269.56L679.086 1357.41H683.435L734.488 1269.28L734.65 1373.62H743.374L743.206 1251.65H735.878Z" fill="black"/>
<path d="M794.757 1315.6H859.748V1307.76H794.757V1259.67H867.42V1251.65H785.886V1373.62H870.036V1365.59H794.757V1315.6Z" fill="black"/>
<path d="M974.22 1326.92C971.43 1322.97 967.778 1319.82 963.234 1317.5C958.711 1315.18 953.768 1313.34 948.442 1311.94C943.097 1310.42 937.688 1309.03 932.236 1307.76C926.768 1306.47 921.78 1304.91 917.239 1303.05C912.716 1301.19 909.059 1298.7 906.275 1295.55C903.608 1292.42 902.255 1288.24 902.255 1283.02C902.255 1278.48 903.485 1274.42 905.912 1270.81C908.362 1267.11 912.144 1264.13 917.239 1261.93C922.349 1259.72 928.797 1258.62 936.591 1258.62C942.042 1258.62 947.683 1259.48 953.494 1261.23C959.412 1262.86 964.921 1265.42 970.038 1268.91L973.355 1261.76C968.707 1258.39 963.066 1255.72 956.452 1253.74C949.946 1251.77 943.331 1250.78 936.591 1250.78C926.595 1250.78 918.402 1252.3 912.019 1255.32C905.636 1258.32 900.924 1262.27 897.908 1267.15C894.884 1272.03 893.386 1277.38 893.386 1283.19C893.386 1289.57 894.717 1294.81 897.378 1298.86C900.168 1302.82 903.82 1305.95 908.362 1308.27C912.884 1310.59 917.891 1312.52 923.345 1314.04C928.797 1315.41 934.206 1316.76 939.548 1318.03C944.894 1319.32 949.815 1320.88 954.359 1322.74C958.881 1324.6 962.536 1327.09 965.329 1330.22C968.113 1333.37 969.508 1337.55 969.508 1342.77C969.508 1347.19 968.244 1351.2 965.686 1354.79C963.234 1358.4 959.412 1361.3 954.192 1363.5C949.078 1365.59 942.444 1366.65 934.329 1366.65C926.197 1366.65 918.461 1365.19 911.154 1362.29C903.948 1359.27 898.265 1355.62 894.084 1351.31L890.063 1357.94C894.482 1362.8 900.692 1366.82 908.702 1369.96C916.837 1372.96 925.438 1374.48 934.499 1374.48C944.595 1374.48 952.839 1373.02 959.241 1370.13C965.75 1367.11 970.562 1363.16 973.69 1358.28C976.836 1353.29 978.401 1347.95 978.401 1342.24C978.401 1335.99 977.009 1330.87 974.22 1326.92Z" fill="black"/>
<path d="M59.9484 925.165H925.803V59.3104H59.9484V925.165ZM978.594 977.953H7.16602V6.52515H978.594V977.953Z" fill="black"/>
<path d="M737.861 648.372C737.861 666.993 722.752 682.125 704.108 682.125C685.464 682.125 670.354 666.993 670.354 648.372C670.354 629.728 685.464 614.596 704.108 614.596C722.752 614.596 737.861 629.728 737.861 648.372Z" fill="black"/>
<path d="M333.917 302.351V682.125H462.818C560.619 681.832 579.034 680.981 606.946 661.4C634.568 641.844 651.817 606.743 651.817 572.219C651.817 528.495 625.944 493.682 579.905 480.732C612.414 465.77 633.404 433.847 633.404 398.163C633.404 365.654 615.862 338.035 592.562 321.924C569.265 306.092 545.658 302.351 485.823 302.351H333.917ZM410.733 365.947H454.75C490.708 365.947 512.298 366.24 519.783 367.09C545.951 370.251 558.602 385.213 558.602 409.09C558.602 421.46 554.861 431.247 547.382 438.732C532.442 453.693 520.636 453.4 460.801 453.4H410.733V365.947ZM410.733 516.982H472.292C507.106 516.982 529.84 518.706 540.48 522.151C561.205 529.346 572.425 545.744 572.425 568.771C572.425 595.229 556.32 611.915 534.167 615.662C526.679 617.383 509.123 618.256 481.499 618.256H410.733V516.982Z" fill="black"/>
</g>
</g>
</g>
<defs>
<clipPath id="clip0_105_48">
<rect width="985" height="1380" fill="white"/>
</clipPath>
<clipPath id="clip1_105_48">
<rect width="1977" height="1977" fill="white" transform="translate(-496 -298)"/>
</clipPath>
</defs>
</svg>
